<mxfile host="Electron" modified="2024-05-02T20:26:27.581Z" agent="Mozilla/5.0 (X11; Linux x86_64) AppleWebKit/537.36 (KHTML, like Gecko) draw.io/24.2.5 Chrome/120.0.6099.109 Electron/28.1.0 Safari/537.36" etag="LqcpnK1FYAJYW7xhd-V8" version="24.2.5" type="device">
  <diagram name="Page-1" id="kQygI4saFFsrhIiDpV9y">
    <mxGraphModel dx="3845" dy="2012" grid="1" gridSize="10" guides="1" tooltips="1" connect="1" arrows="1" fold="1" page="1" pageScale="1" pageWidth="827" pageHeight="1169" math="0" shadow="0">
      <root>
        <mxCell id="0" />
        <mxCell id="1" parent="0" />
        <mxCell id="l7rZU124cZbemS13sDr9-57" style="edgeStyle=orthogonalEdgeStyle;rounded=0;orthogonalLoop=1;jettySize=auto;html=1;exitX=0;exitY=0;exitDx=0;exitDy=0;" parent="1" source="DFoldNu-bzbXCoR8HNMC-1" edge="1">
          <mxGeometry relative="1" as="geometry">
            <mxPoint x="510" y="160" as="targetPoint" />
          </mxGeometry>
        </mxCell>
        <mxCell id="DFoldNu-bzbXCoR8HNMC-1" value="ADMIN" style="rounded=0;whiteSpace=wrap;html=1;fillColor=#7EA6E0;strokeColor=#000066;fontStyle=1;strokeWidth=2;" parent="1" vertex="1">
          <mxGeometry x="500" y="160" width="120" height="60" as="geometry" />
        </mxCell>
        <mxCell id="DFoldNu-bzbXCoR8HNMC-24" value="" style="endArrow=classic;html=1;rounded=0;exitX=1;exitY=0.5;exitDx=0;exitDy=0;" parent="1" source="DFoldNu-bzbXCoR8HNMC-1" edge="1">
          <mxGeometry width="50" height="50" relative="1" as="geometry">
            <mxPoint x="790" y="160" as="sourcePoint" />
            <mxPoint x="850" y="160" as="targetPoint" />
          </mxGeometry>
        </mxCell>
        <mxCell id="DFoldNu-bzbXCoR8HNMC-26" value="have&amp;nbsp;" style="rhombus;whiteSpace=wrap;html=1;fillColor=#ffe6cc;strokeColor=#663300;strokeWidth=2;" parent="1" vertex="1">
          <mxGeometry x="290" y="150" width="130" height="100" as="geometry" />
        </mxCell>
        <mxCell id="DFoldNu-bzbXCoR8HNMC-27" value="" style="endArrow=classic;html=1;rounded=0;exitX=0;exitY=0.5;exitDx=0;exitDy=0;" parent="1" source="DFoldNu-bzbXCoR8HNMC-26" edge="1">
          <mxGeometry width="50" height="50" relative="1" as="geometry">
            <mxPoint x="210" y="200" as="sourcePoint" />
            <mxPoint x="200" y="200" as="targetPoint" />
            <Array as="points">
              <mxPoint x="240" y="200" />
            </Array>
          </mxGeometry>
        </mxCell>
        <mxCell id="DFoldNu-bzbXCoR8HNMC-29" value="Login" style="rounded=0;whiteSpace=wrap;html=1;fillColor=#7EA6E0;strokeColor=#000066;fontStyle=1;strokeWidth=2;" parent="1" vertex="1">
          <mxGeometry x="80" y="160" width="120" height="60" as="geometry" />
        </mxCell>
        <mxCell id="DFoldNu-bzbXCoR8HNMC-30" value="" style="endArrow=classic;html=1;rounded=0;exitX=0;exitY=0;exitDx=0;exitDy=0;" parent="1" source="OytMzWkZwy1DixSwyri9-10" edge="1">
          <mxGeometry width="50" height="50" relative="1" as="geometry">
            <mxPoint x="970" y="170" as="sourcePoint" />
            <mxPoint x="223.9413681728347" y="78.54071638519781" as="targetPoint" />
          </mxGeometry>
        </mxCell>
        <mxCell id="DFoldNu-bzbXCoR8HNMC-31" value="" style="endArrow=classic;html=1;rounded=0;" parent="1" target="DFoldNu-bzbXCoR8HNMC-33" edge="1">
          <mxGeometry width="50" height="50" relative="1" as="geometry">
            <mxPoint x="160" y="220" as="sourcePoint" />
            <mxPoint x="200" y="280" as="targetPoint" />
          </mxGeometry>
        </mxCell>
        <mxCell id="DFoldNu-bzbXCoR8HNMC-33" value="Login-Password" style="ellipse;whiteSpace=wrap;html=1;fillColor=#d5e8d4;strokeColor=#82b366;" parent="1" vertex="1">
          <mxGeometry x="250" y="270" width="120" height="80" as="geometry" />
        </mxCell>
        <mxCell id="DFoldNu-bzbXCoR8HNMC-35" value="" style="endArrow=classic;html=1;rounded=0;" parent="1" target="DFoldNu-bzbXCoR8HNMC-36" edge="1">
          <mxGeometry width="50" height="50" relative="1" as="geometry">
            <mxPoint x="560" y="160" as="sourcePoint" />
            <mxPoint x="560" y="100" as="targetPoint" />
          </mxGeometry>
        </mxCell>
        <mxCell id="DFoldNu-bzbXCoR8HNMC-36" value="Name" style="ellipse;whiteSpace=wrap;html=1;fillColor=#d5e8d4;strokeColor=#82b366;" parent="1" vertex="1">
          <mxGeometry x="640" y="-100" width="120" height="80" as="geometry" />
        </mxCell>
        <mxCell id="DFoldNu-bzbXCoR8HNMC-37" value="" style="endArrow=classic;html=1;rounded=0;" parent="1" edge="1">
          <mxGeometry width="50" height="50" relative="1" as="geometry">
            <mxPoint x="500" y="200" as="sourcePoint" />
            <mxPoint x="420" y="200" as="targetPoint" />
          </mxGeometry>
        </mxCell>
        <mxCell id="DFoldNu-bzbXCoR8HNMC-41" value="&lt;h3&gt;Admin-ID&lt;/h3&gt;" style="ellipse;whiteSpace=wrap;html=1;rotation=0;fillColor=#d5e8d4;strokeColor=#82b366;fontStyle=4;" parent="1" vertex="1">
          <mxGeometry x="850" y="130" width="120" height="80" as="geometry" />
        </mxCell>
        <mxCell id="DFoldNu-bzbXCoR8HNMC-43" value="" style="endArrow=classic;html=1;rounded=0;exitX=0.386;exitY=0.978;exitDx=0;exitDy=0;exitPerimeter=0;" parent="1" source="ka3ZlVEU3OrB7q1dygob-4" edge="1">
          <mxGeometry width="50" height="50" relative="1" as="geometry">
            <mxPoint x="-225" y="260" as="sourcePoint" />
            <mxPoint x="-225" y="350" as="targetPoint" />
          </mxGeometry>
        </mxCell>
        <mxCell id="DFoldNu-bzbXCoR8HNMC-44" value="will Borrow" style="rhombus;whiteSpace=wrap;html=1;fillColor=#ffe6cc;strokeColor=#663300;strokeWidth=2;" parent="1" vertex="1">
          <mxGeometry x="-290" y="350" width="130" height="130" as="geometry" />
        </mxCell>
        <mxCell id="DFoldNu-bzbXCoR8HNMC-45" value="" style="endArrow=classic;html=1;rounded=0;fillColor=#dae8fc;strokeColor=#121212;" parent="1" edge="1">
          <mxGeometry width="50" height="50" relative="1" as="geometry">
            <mxPoint x="-225" y="480" as="sourcePoint" />
            <mxPoint x="-225" y="550" as="targetPoint" />
          </mxGeometry>
        </mxCell>
        <mxCell id="DFoldNu-bzbXCoR8HNMC-46" value="BOOK" style="rounded=0;whiteSpace=wrap;html=1;fillColor=#7EA6E0;strokeColor=#000066;fontStyle=1;strokeWidth=2;" parent="1" vertex="1">
          <mxGeometry x="-295" y="550" width="190" height="60" as="geometry" />
        </mxCell>
        <mxCell id="DFoldNu-bzbXCoR8HNMC-48" value="Admin_phoneno" style="ellipse;whiteSpace=wrap;html=1;fillColor=#d5e8d4;strokeColor=#82b366;" parent="1" vertex="1">
          <mxGeometry x="760" y="10" width="120" height="80" as="geometry" />
        </mxCell>
        <mxCell id="DFoldNu-bzbXCoR8HNMC-49" value="" style="endArrow=classic;html=1;rounded=0;" parent="1" target="DFoldNu-bzbXCoR8HNMC-48" edge="1">
          <mxGeometry width="50" height="50" relative="1" as="geometry">
            <mxPoint x="620" y="160" as="sourcePoint" />
            <mxPoint x="670" y="110" as="targetPoint" />
          </mxGeometry>
        </mxCell>
        <mxCell id="DFoldNu-bzbXCoR8HNMC-52" value="" style="endArrow=classic;html=1;rounded=0;entryX=-0.05;entryY=0.667;entryDx=0;entryDy=0;entryPerimeter=0;" parent="1" source="DFoldNu-bzbXCoR8HNMC-53" target="DFoldNu-bzbXCoR8HNMC-29" edge="1">
          <mxGeometry width="50" height="50" relative="1" as="geometry">
            <mxPoint x="-110" y="200" as="sourcePoint" />
            <mxPoint x="-60" y="150" as="targetPoint" />
          </mxGeometry>
        </mxCell>
        <mxCell id="DFoldNu-bzbXCoR8HNMC-53" value="have to" style="rhombus;whiteSpace=wrap;html=1;fillColor=#ffe6cc;strokeColor=#663300;strokeWidth=2;" parent="1" vertex="1">
          <mxGeometry x="-100" y="130" width="120" height="140" as="geometry" />
        </mxCell>
        <mxCell id="DFoldNu-bzbXCoR8HNMC-58" value="" style="endArrow=classic;html=1;rounded=0;" parent="1" edge="1">
          <mxGeometry width="50" height="50" relative="1" as="geometry">
            <mxPoint x="-150" y="610" as="sourcePoint" />
            <mxPoint x="-60" y="630" as="targetPoint" />
          </mxGeometry>
        </mxCell>
        <mxCell id="DFoldNu-bzbXCoR8HNMC-59" value="&lt;h3&gt;ISBN&lt;/h3&gt;" style="ellipse;whiteSpace=wrap;html=1;fillColor=#d5e8d4;strokeColor=#82b366;fontStyle=4;" parent="1" vertex="1">
          <mxGeometry x="-65" y="600" width="120" height="80" as="geometry" />
        </mxCell>
        <mxCell id="DFoldNu-bzbXCoR8HNMC-60" value="" style="endArrow=classic;html=1;rounded=0;entryX=0.5;entryY=0;entryDx=0;entryDy=0;" parent="1" target="DFoldNu-bzbXCoR8HNMC-61" edge="1">
          <mxGeometry width="50" height="50" relative="1" as="geometry">
            <mxPoint x="-200" y="610" as="sourcePoint" />
            <mxPoint x="-200" y="680" as="targetPoint" />
          </mxGeometry>
        </mxCell>
        <mxCell id="DFoldNu-bzbXCoR8HNMC-61" value="Book_Titlle" style="ellipse;whiteSpace=wrap;html=1;fillColor=#d5e8d4;strokeColor=#82b366;" parent="1" vertex="1">
          <mxGeometry x="-140" y="730" width="120" height="80" as="geometry" />
        </mxCell>
        <mxCell id="DFoldNu-bzbXCoR8HNMC-62" value="" style="endArrow=classic;html=1;rounded=0;entryX=0.758;entryY=0;entryDx=0;entryDy=0;entryPerimeter=0;" parent="1" target="DFoldNu-bzbXCoR8HNMC-63" edge="1">
          <mxGeometry width="50" height="50" relative="1" as="geometry">
            <mxPoint x="-260" y="610" as="sourcePoint" />
            <mxPoint x="-320" y="670" as="targetPoint" />
          </mxGeometry>
        </mxCell>
        <mxCell id="DFoldNu-bzbXCoR8HNMC-63" value="book_author" style="ellipse;whiteSpace=wrap;html=1;fillColor=#d5e8d4;strokeColor=#82b366;" parent="1" vertex="1">
          <mxGeometry x="-560" y="680" width="120" height="80" as="geometry" />
        </mxCell>
        <mxCell id="DFoldNu-bzbXCoR8HNMC-64" value="" style="endArrow=classic;html=1;rounded=0;exitX=0;exitY=0.5;exitDx=0;exitDy=0;" parent="1" source="DFoldNu-bzbXCoR8HNMC-46" edge="1">
          <mxGeometry width="50" height="50" relative="1" as="geometry">
            <mxPoint x="-290" y="580" as="sourcePoint" />
            <mxPoint x="-395" y="575" as="targetPoint" />
          </mxGeometry>
        </mxCell>
        <mxCell id="DFoldNu-bzbXCoR8HNMC-65" value="(Catogory_ID)" style="ellipse;whiteSpace=wrap;html=1;fillColor=#d5e8d4;strokeColor=#82b366;" parent="1" vertex="1">
          <mxGeometry x="-510" y="520" width="120" height="80" as="geometry" />
        </mxCell>
        <mxCell id="DFoldNu-bzbXCoR8HNMC-67" value="get book issue from" style="rhombus;whiteSpace=wrap;html=1;fillColor=#ffe6cc;strokeColor=#663300;strokeWidth=2;" parent="1" vertex="1">
          <mxGeometry x="-95" y="360" width="150" height="130" as="geometry" />
        </mxCell>
        <mxCell id="DFoldNu-bzbXCoR8HNMC-68" value="" style="endArrow=classic;html=1;rounded=0;entryX=0.083;entryY=1;entryDx=0;entryDy=0;entryPerimeter=0;exitX=1;exitY=0.5;exitDx=0;exitDy=0;" parent="1" source="DFoldNu-bzbXCoR8HNMC-67" target="DFoldNu-bzbXCoR8HNMC-1" edge="1">
          <mxGeometry width="50" height="50" relative="1" as="geometry">
            <mxPoint x="-10" y="410" as="sourcePoint" />
            <mxPoint x="400" y="400" as="targetPoint" />
            <Array as="points">
              <mxPoint x="360" y="420" />
            </Array>
          </mxGeometry>
        </mxCell>
        <mxCell id="DFoldNu-bzbXCoR8HNMC-69" value="" style="endArrow=classic;html=1;rounded=0;exitX=0;exitY=0;exitDx=0;exitDy=0;" parent="1" source="ka3ZlVEU3OrB7q1dygob-4" target="DFoldNu-bzbXCoR8HNMC-70" edge="1">
          <mxGeometry width="50" height="50" relative="1" as="geometry">
            <mxPoint x="-280" y="140" as="sourcePoint" />
            <mxPoint x="-320" y="70" as="targetPoint" />
            <Array as="points" />
          </mxGeometry>
        </mxCell>
        <mxCell id="DFoldNu-bzbXCoR8HNMC-70" value="&lt;h3&gt;User-ID&lt;/h3&gt;" style="ellipse;whiteSpace=wrap;html=1;fillColor=#d5e8d4;strokeColor=#82b366;fontStyle=4;fontColor=#0b0909;" parent="1" vertex="1">
          <mxGeometry x="-570" y="-40" width="120" height="80" as="geometry" />
        </mxCell>
        <mxCell id="DFoldNu-bzbXCoR8HNMC-71" value="" style="endArrow=classic;html=1;rounded=0;exitX=0.385;exitY=0;exitDx=0;exitDy=0;exitPerimeter=0;entryX=0.408;entryY=1.025;entryDx=0;entryDy=0;entryPerimeter=0;" parent="1" source="ka3ZlVEU3OrB7q1dygob-4" target="DFoldNu-bzbXCoR8HNMC-72" edge="1">
          <mxGeometry width="50" height="50" relative="1" as="geometry">
            <mxPoint x="-250" y="140" as="sourcePoint" />
            <mxPoint x="-220" y="50" as="targetPoint" />
          </mxGeometry>
        </mxCell>
        <mxCell id="DFoldNu-bzbXCoR8HNMC-72" value="User_Name" style="ellipse;whiteSpace=wrap;html=1;fillColor=#d5e8d4;strokeColor=#82b366;" parent="1" vertex="1">
          <mxGeometry x="-240" y="-130" width="120" height="80" as="geometry" />
        </mxCell>
        <mxCell id="DFoldNu-bzbXCoR8HNMC-74" value="User_phoneNo" style="ellipse;whiteSpace=wrap;html=1;fillColor=#d5e8d4;strokeColor=#82b366;" parent="1" vertex="1">
          <mxGeometry x="-420" y="-140" width="120" height="80" as="geometry" />
        </mxCell>
        <mxCell id="DFoldNu-bzbXCoR8HNMC-75" value="" style="endArrow=classic;html=1;rounded=0;exitX=0;exitY=0.25;exitDx=0;exitDy=0;" parent="1" source="ka3ZlVEU3OrB7q1dygob-4" edge="1">
          <mxGeometry width="50" height="50" relative="1" as="geometry">
            <mxPoint x="-290" y="190" as="sourcePoint" />
            <mxPoint x="-510" y="130" as="targetPoint" />
          </mxGeometry>
        </mxCell>
        <mxCell id="DFoldNu-bzbXCoR8HNMC-76" value="User_Address" style="ellipse;whiteSpace=wrap;html=1;fillColor=#d5e8d4;strokeColor=#82b366;" parent="1" vertex="1">
          <mxGeometry x="-640" y="80" width="120" height="80" as="geometry" />
        </mxCell>
        <mxCell id="l7rZU124cZbemS13sDr9-26" value="" style="endArrow=classic;html=1;rounded=0;" parent="1" target="l7rZU124cZbemS13sDr9-27" edge="1">
          <mxGeometry width="50" height="50" relative="1" as="geometry">
            <mxPoint x="620" y="220" as="sourcePoint" />
            <mxPoint x="680" y="270" as="targetPoint" />
          </mxGeometry>
        </mxCell>
        <mxCell id="l7rZU124cZbemS13sDr9-27" value="Admin_Email" style="ellipse;whiteSpace=wrap;html=1;fillColor=#d5e8d4;strokeColor=#82b366;" parent="1" vertex="1">
          <mxGeometry x="820" y="260" width="120" height="60" as="geometry" />
        </mxCell>
        <mxCell id="l7rZU124cZbemS13sDr9-28" value="" style="endArrow=classic;html=1;rounded=0;exitX=0;exitY=0.75;exitDx=0;exitDy=0;" parent="1" source="ka3ZlVEU3OrB7q1dygob-4" edge="1">
          <mxGeometry width="50" height="50" relative="1" as="geometry">
            <mxPoint x="-285" y="250" as="sourcePoint" />
            <mxPoint x="-460" y="250" as="targetPoint" />
          </mxGeometry>
        </mxCell>
        <mxCell id="l7rZU124cZbemS13sDr9-29" value="User_Email" style="ellipse;whiteSpace=wrap;html=1;fillColor=#d5e8d4;strokeColor=#82b366;" parent="1" vertex="1">
          <mxGeometry x="-590" y="230" width="120" height="70" as="geometry" />
        </mxCell>
        <mxCell id="l7rZU124cZbemS13sDr9-33" value="" style="endArrow=block;endFill=1;html=1;edgeStyle=orthogonalEdgeStyle;align=left;verticalAlign=top;rounded=0;" parent="1" edge="1">
          <mxGeometry x="-1" relative="1" as="geometry">
            <mxPoint x="500" y="170" as="sourcePoint" />
            <mxPoint x="430" y="-10" as="targetPoint" />
          </mxGeometry>
        </mxCell>
        <mxCell id="l7rZU124cZbemS13sDr9-34" value="1" style="edgeLabel;resizable=0;html=1;align=left;verticalAlign=bottom;" parent="l7rZU124cZbemS13sDr9-33" connectable="0" vertex="1">
          <mxGeometry x="-1" relative="1" as="geometry" />
        </mxCell>
        <mxCell id="l7rZU124cZbemS13sDr9-35" value="Add-Event" style="html=1;whiteSpace=wrap;aspect=fixed;shape=isoRectangle;fillColor=#ffe6cc;strokeColor=#663300;strokeWidth=2;" parent="1" vertex="1">
          <mxGeometry x="340" y="-120" width="183.33" height="110" as="geometry" />
        </mxCell>
        <mxCell id="l7rZU124cZbemS13sDr9-36" value="" style="line;strokeWidth=2;direction=south;html=1;" parent="1" vertex="1">
          <mxGeometry x="426" y="-290" width="10" height="180" as="geometry" />
        </mxCell>
        <mxCell id="l7rZU124cZbemS13sDr9-38" value="" style="line;strokeWidth=2;html=1;perimeter=backbonePerimeter;points=[];outlineConnect=0;" parent="1" vertex="1">
          <mxGeometry x="170" y="-320" width="190" height="10" as="geometry" />
        </mxCell>
        <mxCell id="l7rZU124cZbemS13sDr9-39" value="Organized for" style="rhombus;whiteSpace=wrap;html=1;fillColor=#ffe6cc;strokeColor=#663300;strokeWidth=2;" parent="1" vertex="1">
          <mxGeometry x="30" y="-395" width="160" height="160" as="geometry" />
        </mxCell>
        <mxCell id="l7rZU124cZbemS13sDr9-40" value="" style="line;strokeWidth=2;html=1;" parent="1" vertex="1">
          <mxGeometry x="-270" y="-320" width="300" height="10" as="geometry" />
        </mxCell>
        <mxCell id="l7rZU124cZbemS13sDr9-45" value="" style="endArrow=none;html=1;rounded=0;entryX=0.698;entryY=1.006;entryDx=0;entryDy=0;entryPerimeter=0;endSize=1;strokeColor=none;strokeWidth=2;" parent="1" edge="1">
          <mxGeometry width="50" height="50" relative="1" as="geometry">
            <mxPoint x="430" y="-200" as="sourcePoint" />
            <mxPoint x="463.076" y="-227.02800000000002" as="targetPoint" />
          </mxGeometry>
        </mxCell>
        <mxCell id="l7rZU124cZbemS13sDr9-48" value="" style="endArrow=classic;html=1;rounded=0;" parent="1" target="l7rZU124cZbemS13sDr9-49" edge="1">
          <mxGeometry width="50" height="50" relative="1" as="geometry">
            <mxPoint x="510" y="-290" as="sourcePoint" />
            <mxPoint x="530" y="-230" as="targetPoint" />
          </mxGeometry>
        </mxCell>
        <mxCell id="l7rZU124cZbemS13sDr9-49" value="&lt;h3&gt;&lt;u&gt;Event-ID&lt;/u&gt;&lt;/h3&gt;" style="ellipse;whiteSpace=wrap;html=1;fillColor=#d5e8d4;strokeColor=#82b366;" parent="1" vertex="1">
          <mxGeometry x="700" y="-240" width="170" height="80" as="geometry" />
        </mxCell>
        <mxCell id="l7rZU124cZbemS13sDr9-50" value="" style="endArrow=classic;html=1;rounded=0;entryX=0.011;entryY=0.588;entryDx=0;entryDy=0;entryPerimeter=0;" parent="1" source="ka3ZlVEU3OrB7q1dygob-5" target="l7rZU124cZbemS13sDr9-51" edge="1">
          <mxGeometry width="50" height="50" relative="1" as="geometry">
            <mxPoint x="520" y="-320" as="sourcePoint" />
            <mxPoint x="600" y="-340" as="targetPoint" />
          </mxGeometry>
        </mxCell>
        <mxCell id="l7rZU124cZbemS13sDr9-51" value="Event_Address" style="ellipse;whiteSpace=wrap;html=1;fillColor=#d5e8d4;strokeColor=#82b366;" parent="1" vertex="1">
          <mxGeometry x="700" y="-400" width="170" height="80" as="geometry" />
        </mxCell>
        <mxCell id="l7rZU124cZbemS13sDr9-52" value="" style="endArrow=classic;html=1;rounded=0;" parent="1" target="l7rZU124cZbemS13sDr9-53" edge="1">
          <mxGeometry width="50" height="50" relative="1" as="geometry">
            <mxPoint x="453.33" y="-360" as="sourcePoint" />
            <mxPoint x="523.33" y="-400" as="targetPoint" />
          </mxGeometry>
        </mxCell>
        <mxCell id="l7rZU124cZbemS13sDr9-53" value="Event_Date" style="ellipse;whiteSpace=wrap;html=1;fillColor=#d5e8d4;strokeColor=#82b366;" parent="1" vertex="1">
          <mxGeometry x="530" y="-584" width="180" height="80" as="geometry" />
        </mxCell>
        <mxCell id="l7rZU124cZbemS13sDr9-54" value="" style="endArrow=classic;html=1;rounded=0;exitX=0.185;exitY=-0.031;exitDx=0;exitDy=0;exitPerimeter=0;" parent="1" source="ka3ZlVEU3OrB7q1dygob-5" target="l7rZU124cZbemS13sDr9-55" edge="1">
          <mxGeometry width="50" height="50" relative="1" as="geometry">
            <mxPoint x="436" y="-360" as="sourcePoint" />
            <mxPoint x="476" y="-440" as="targetPoint" />
          </mxGeometry>
        </mxCell>
        <mxCell id="l7rZU124cZbemS13sDr9-55" value="Event-Name" style="ellipse;whiteSpace=wrap;html=1;fillColor=#d5e8d4;strokeColor=#82b366;" parent="1" vertex="1">
          <mxGeometry x="190" y="-590" width="170" height="80" as="geometry" />
        </mxCell>
        <mxCell id="l7rZU124cZbemS13sDr9-67" value="" style="endArrow=classic;html=1;rounded=0;entryX=0.997;entryY=0.17;entryDx=0;entryDy=0;exitX=0;exitY=0.5;exitDx=0;exitDy=0;entryPerimeter=0;" parent="1" source="l7rZU124cZbemS13sDr9-68" target="DFoldNu-bzbXCoR8HNMC-46" edge="1">
          <mxGeometry width="50" height="50" relative="1" as="geometry">
            <mxPoint x="130" y="470" as="sourcePoint" />
            <mxPoint x="180" y="420" as="targetPoint" />
            <Array as="points">
              <mxPoint x="-80" y="560" />
            </Array>
          </mxGeometry>
        </mxCell>
        <mxCell id="l7rZU124cZbemS13sDr9-68" value="issues" style="rhombus;whiteSpace=wrap;html=1;strokeColor=#663300;strokeWidth=2;fillColor=#ffe6cc;" parent="1" vertex="1">
          <mxGeometry x="210" y="505" width="120" height="110" as="geometry" />
        </mxCell>
        <mxCell id="l7rZU124cZbemS13sDr9-69" value="" style="endArrow=none;html=1;rounded=0;entryX=0.55;entryY=1.003;entryDx=0;entryDy=0;entryPerimeter=0;" parent="1" target="DFoldNu-bzbXCoR8HNMC-1" edge="1">
          <mxGeometry width="50" height="50" relative="1" as="geometry">
            <mxPoint x="330" y="560" as="sourcePoint" />
            <mxPoint x="639.02" y="300" as="targetPoint" />
            <Array as="points">
              <mxPoint x="480" y="560" />
            </Array>
          </mxGeometry>
        </mxCell>
        <mxCell id="ka3ZlVEU3OrB7q1dygob-1" value="" style="endArrow=none;html=1;rounded=0;entryX=0.75;entryY=1;entryDx=0;entryDy=0;exitX=0;exitY=0.5;exitDx=0;exitDy=0;" parent="1" source="DFoldNu-bzbXCoR8HNMC-67" target="ka3ZlVEU3OrB7q1dygob-4" edge="1">
          <mxGeometry width="50" height="50" relative="1" as="geometry">
            <mxPoint x="-100" y="420" as="sourcePoint" />
            <mxPoint x="-170.51999999999998" y="254.42500000000018" as="targetPoint" />
            <Array as="points">
              <mxPoint x="-130" y="425" />
            </Array>
          </mxGeometry>
        </mxCell>
        <mxCell id="ka3ZlVEU3OrB7q1dygob-4" value="&lt;h3&gt;USER&lt;/h3&gt;" style="rounded=0;whiteSpace=wrap;html=1;fillColor=#7EA6E0;strokeColor=#000066;strokeWidth=3;" parent="1" vertex="1">
          <mxGeometry x="-295" y="170" width="130" height="80" as="geometry" />
        </mxCell>
        <mxCell id="ka3ZlVEU3OrB7q1dygob-5" value="&lt;h4&gt;EVENTS&lt;/h4&gt;" style="rounded=0;whiteSpace=wrap;html=1;fillColor=#7EA6E0;strokeColor=#000099;strokeWidth=3;" parent="1" vertex="1">
          <mxGeometry x="360" y="-360" width="150" height="70" as="geometry" />
        </mxCell>
        <mxCell id="ka3ZlVEU3OrB7q1dygob-6" value="&lt;h4&gt;CHECKOUTS&lt;/h4&gt;" style="rounded=0;whiteSpace=wrap;html=1;fillColor=#7EA6E0;strokeColor=#000066;strokeWidth=3;" parent="1" vertex="1">
          <mxGeometry x="-850" y="360" width="120" height="60" as="geometry" />
        </mxCell>
        <mxCell id="ka3ZlVEU3OrB7q1dygob-7" value="User-Id" style="ellipse;whiteSpace=wrap;html=1;fillColor=#d5e8d4;strokeColor=#82b366;" parent="1" vertex="1">
          <mxGeometry x="-860" y="190" width="130" height="80" as="geometry" />
        </mxCell>
        <mxCell id="ka3ZlVEU3OrB7q1dygob-8" value="Due-date" style="ellipse;whiteSpace=wrap;html=1;fillColor=#d5e8d4;strokeColor=#82b366;" parent="1" vertex="1">
          <mxGeometry x="-1080" y="350" width="120" height="80" as="geometry" />
        </mxCell>
        <mxCell id="ka3ZlVEU3OrB7q1dygob-9" value="CheckOut-Date" style="ellipse;whiteSpace=wrap;html=1;fillColor=#d5e8d4;strokeColor=#82b366;" parent="1" vertex="1">
          <mxGeometry x="-1020" y="230" width="120" height="80" as="geometry" />
        </mxCell>
        <mxCell id="ka3ZlVEU3OrB7q1dygob-10" value="Book-Id" style="ellipse;whiteSpace=wrap;html=1;fillColor=#d5e8d4;strokeColor=#82b366;" parent="1" vertex="1">
          <mxGeometry x="-1030" y="470" width="120" height="80" as="geometry" />
        </mxCell>
        <mxCell id="ka3ZlVEU3OrB7q1dygob-11" value="Return-Date" style="ellipse;whiteSpace=wrap;html=1;fillColor=#d5e8d4;strokeColor=#82b366;" parent="1" vertex="1">
          <mxGeometry x="-840" y="530" width="120" height="80" as="geometry" />
        </mxCell>
        <mxCell id="ka3ZlVEU3OrB7q1dygob-12" value="" style="endArrow=classic;html=1;rounded=0;" parent="1" edge="1">
          <mxGeometry width="50" height="50" relative="1" as="geometry">
            <mxPoint x="-280" y="550" as="sourcePoint" />
            <mxPoint x="-330" y="490" as="targetPoint" />
          </mxGeometry>
        </mxCell>
        <mxCell id="ka3ZlVEU3OrB7q1dygob-13" value="Book-Copy" style="ellipse;whiteSpace=wrap;html=1;fillColor=#d5e8d4;strokeColor=#82b366;" parent="1" vertex="1">
          <mxGeometry x="-440" y="430" width="140" height="65" as="geometry" />
        </mxCell>
        <mxCell id="ka3ZlVEU3OrB7q1dygob-14" value="has" style="rhombus;whiteSpace=wrap;html=1;fillColor=#ffe6cc;strokeColor=#663300;strokeWidth=2;" parent="1" vertex="1">
          <mxGeometry x="-700" y="500" width="100" height="100" as="geometry" />
        </mxCell>
        <mxCell id="ka3ZlVEU3OrB7q1dygob-15" value="" style="endArrow=none;html=1;rounded=0;exitX=0.5;exitY=1;exitDx=0;exitDy=0;" parent="1" source="ka3ZlVEU3OrB7q1dygob-14" edge="1">
          <mxGeometry relative="1" as="geometry">
            <mxPoint x="-810" y="640" as="sourcePoint" />
            <mxPoint x="-650" y="640" as="targetPoint" />
            <Array as="points">
              <mxPoint x="-650" y="620" />
            </Array>
          </mxGeometry>
        </mxCell>
        <mxCell id="ka3ZlVEU3OrB7q1dygob-18" value="" style="endArrow=none;html=1;rounded=0;entryX=0.029;entryY=0.983;entryDx=0;entryDy=0;entryPerimeter=0;" parent="1" target="DFoldNu-bzbXCoR8HNMC-46" edge="1">
          <mxGeometry width="50" height="50" relative="1" as="geometry">
            <mxPoint x="-650" y="640" as="sourcePoint" />
            <mxPoint x="-600" y="590" as="targetPoint" />
          </mxGeometry>
        </mxCell>
        <mxCell id="ka3ZlVEU3OrB7q1dygob-20" value="" style="endArrow=none;html=1;rounded=0;" parent="1" edge="1">
          <mxGeometry width="50" height="50" relative="1" as="geometry">
            <mxPoint x="-650" y="500" as="sourcePoint" />
            <mxPoint x="-650" y="400" as="targetPoint" />
          </mxGeometry>
        </mxCell>
        <mxCell id="ka3ZlVEU3OrB7q1dygob-21" value="" style="endArrow=classic;html=1;rounded=0;entryX=0.988;entryY=0.617;entryDx=0;entryDy=0;entryPerimeter=0;" parent="1" target="ka3ZlVEU3OrB7q1dygob-6" edge="1">
          <mxGeometry width="50" height="50" relative="1" as="geometry">
            <mxPoint x="-650" y="400" as="sourcePoint" />
            <mxPoint x="-600" y="350" as="targetPoint" />
          </mxGeometry>
        </mxCell>
        <mxCell id="ka3ZlVEU3OrB7q1dygob-22" value="" style="endArrow=classic;html=1;rounded=0;exitX=0.348;exitY=1.057;exitDx=0;exitDy=0;exitPerimeter=0;" parent="1" edge="1">
          <mxGeometry width="50" height="50" relative="1" as="geometry">
            <mxPoint x="-794.1200000000002" y="420.00000000000006" as="sourcePoint" />
            <mxPoint x="-780" y="530" as="targetPoint" />
          </mxGeometry>
        </mxCell>
        <mxCell id="ka3ZlVEU3OrB7q1dygob-23" value="" style="endArrow=classic;html=1;rounded=0;" parent="1" edge="1">
          <mxGeometry width="50" height="50" relative="1" as="geometry">
            <mxPoint x="-850" y="420" as="sourcePoint" />
            <mxPoint x="-930" y="470" as="targetPoint" />
          </mxGeometry>
        </mxCell>
        <mxCell id="ka3ZlVEU3OrB7q1dygob-24" value="" style="endArrow=classic;html=1;rounded=0;" parent="1" edge="1">
          <mxGeometry width="50" height="50" relative="1" as="geometry">
            <mxPoint x="-850" y="400" as="sourcePoint" />
            <mxPoint x="-950" y="400" as="targetPoint" />
          </mxGeometry>
        </mxCell>
        <mxCell id="ka3ZlVEU3OrB7q1dygob-25" value="" style="endArrow=classic;html=1;rounded=0;" parent="1" target="ka3ZlVEU3OrB7q1dygob-9" edge="1">
          <mxGeometry width="50" height="50" relative="1" as="geometry">
            <mxPoint x="-850" y="360" as="sourcePoint" />
            <mxPoint x="-800" y="310" as="targetPoint" />
          </mxGeometry>
        </mxCell>
        <mxCell id="ka3ZlVEU3OrB7q1dygob-26" value="" style="endArrow=classic;html=1;rounded=0;entryX=0.231;entryY=1;entryDx=0;entryDy=0;entryPerimeter=0;" parent="1" edge="1">
          <mxGeometry width="50" height="50" relative="1" as="geometry">
            <mxPoint x="-790.03" y="360" as="sourcePoint" />
            <mxPoint x="-810" y="270" as="targetPoint" />
          </mxGeometry>
        </mxCell>
        <mxCell id="ka3ZlVEU3OrB7q1dygob-29" value="" style="endArrow=none;html=1;rounded=0;entryX=0;entryY=0.5;entryDx=0;entryDy=0;exitX=1.008;exitY=0.378;exitDx=0;exitDy=0;exitPerimeter=0;" parent="1" source="ka3ZlVEU3OrB7q1dygob-4" target="DFoldNu-bzbXCoR8HNMC-53" edge="1">
          <mxGeometry width="50" height="50" relative="1" as="geometry">
            <mxPoint x="-150" y="210" as="sourcePoint" />
            <mxPoint x="-100" y="160" as="targetPoint" />
          </mxGeometry>
        </mxCell>
        <mxCell id="OytMzWkZwy1DixSwyri9-1" value="1" style="text;strokeColor=none;align=center;fillColor=none;html=1;verticalAlign=middle;whiteSpace=wrap;rounded=0;" parent="1" vertex="1">
          <mxGeometry x="-150" y="180" width="30" height="10" as="geometry" />
        </mxCell>
        <mxCell id="OytMzWkZwy1DixSwyri9-2" value="1" style="text;strokeColor=none;align=center;fillColor=none;html=1;verticalAlign=middle;whiteSpace=wrap;rounded=0;" parent="1" vertex="1">
          <mxGeometry x="450" y="180" width="50" height="20" as="geometry" />
        </mxCell>
        <mxCell id="OytMzWkZwy1DixSwyri9-6" value="1" style="text;strokeColor=none;align=center;fillColor=none;html=1;verticalAlign=middle;whiteSpace=wrap;rounded=0;" parent="1" vertex="1">
          <mxGeometry x="386" y="-290" width="50" height="40" as="geometry" />
        </mxCell>
        <mxCell id="OytMzWkZwy1DixSwyri9-7" value="1" style="text;strokeColor=none;align=center;fillColor=none;html=1;verticalAlign=middle;whiteSpace=wrap;rounded=0;" parent="1" vertex="1">
          <mxGeometry x="10" y="-360" width="60" height="30" as="geometry" />
        </mxCell>
        <mxCell id="OytMzWkZwy1DixSwyri9-8" value="N" style="text;strokeColor=none;align=center;fillColor=none;html=1;verticalAlign=middle;whiteSpace=wrap;rounded=0;" parent="1" vertex="1">
          <mxGeometry x="-110" y="565" width="60" height="30" as="geometry" />
        </mxCell>
        <mxCell id="OytMzWkZwy1DixSwyri9-9" value="1" style="text;strokeColor=none;align=center;fillColor=none;html=1;verticalAlign=middle;whiteSpace=wrap;rounded=0;" parent="1" vertex="1">
          <mxGeometry x="30" y="160" width="60" height="30" as="geometry" />
        </mxCell>
        <mxCell id="OytMzWkZwy1DixSwyri9-10" value="1" style="text;strokeColor=none;align=center;fillColor=none;html=1;verticalAlign=middle;whiteSpace=wrap;rounded=0;" parent="1" vertex="1">
          <mxGeometry x="190" y="160" width="60" height="30" as="geometry" />
        </mxCell>
        <mxCell id="OytMzWkZwy1DixSwyri9-11" value="1" style="text;strokeColor=none;align=center;fillColor=none;html=1;verticalAlign=middle;whiteSpace=wrap;rounded=0;" parent="1" vertex="1">
          <mxGeometry x="-255" y="240" width="60" height="40" as="geometry" />
        </mxCell>
        <mxCell id="OytMzWkZwy1DixSwyri9-12" value="N" style="text;strokeColor=none;align=center;fillColor=none;html=1;verticalAlign=middle;whiteSpace=wrap;rounded=0;" parent="1" vertex="1">
          <mxGeometry x="-240" y="520" width="60" height="30" as="geometry" />
        </mxCell>
        <mxCell id="Hhjpb6YSij6LQ99XiFMk-1" value="" style="endArrow=classic;html=1;rounded=0;" parent="1" edge="1">
          <mxGeometry width="50" height="50" relative="1" as="geometry">
            <mxPoint x="100" y="160" as="sourcePoint" />
            <mxPoint x="60" as="targetPoint" />
          </mxGeometry>
        </mxCell>
        <mxCell id="Hhjpb6YSij6LQ99XiFMk-2" value="(User-Id)" style="ellipse;whiteSpace=wrap;html=1;fillColor=#d5e8d4;strokeColor=#82b366;" parent="1" vertex="1">
          <mxGeometry x="-10" y="-80" width="120" height="80" as="geometry" />
        </mxCell>
        <mxCell id="Hhjpb6YSij6LQ99XiFMk-3" value="(Admin-ID)" style="ellipse;whiteSpace=wrap;html=1;fillColor=#d5e8d4;strokeColor=#82b366;" parent="1" vertex="1">
          <mxGeometry x="175" width="120" height="80" as="geometry" />
        </mxCell>
        <mxCell id="Hhjpb6YSij6LQ99XiFMk-4" value="Login-ID" style="ellipse;whiteSpace=wrap;html=1;fillColor=#d5e8d4;strokeColor=#82b366;" parent="1" vertex="1">
          <mxGeometry x="55" y="280" width="120" height="80" as="geometry" />
        </mxCell>
        <mxCell id="Hhjpb6YSij6LQ99XiFMk-5" value="" style="endArrow=classic;html=1;rounded=0;" parent="1" edge="1">
          <mxGeometry width="50" height="50" relative="1" as="geometry">
            <mxPoint x="100" y="220" as="sourcePoint" />
            <mxPoint x="100" y="280" as="targetPoint" />
          </mxGeometry>
        </mxCell>
        <mxCell id="Hhjpb6YSij6LQ99XiFMk-6" value="" style="endArrow=none;html=1;rounded=0;exitX=0.407;exitY=0.014;exitDx=0;exitDy=0;exitPerimeter=0;" parent="1" source="ka3ZlVEU3OrB7q1dygob-5" edge="1">
          <mxGeometry width="50" height="50" relative="1" as="geometry">
            <mxPoint x="430" y="-350" as="sourcePoint" />
            <mxPoint x="420" y="-580" as="targetPoint" />
          </mxGeometry>
        </mxCell>
        <mxCell id="Hhjpb6YSij6LQ99XiFMk-7" value="has" style="rhombus;whiteSpace=wrap;html=1;fillColor=#ffe6cc;strokeColor=#663300;strokeWidth=2;" parent="1" vertex="1">
          <mxGeometry x="350" y="-720" width="140" height="140" as="geometry" />
        </mxCell>
        <mxCell id="Hhjpb6YSij6LQ99XiFMk-8" value="" style="endArrow=none;html=1;rounded=0;" parent="1" edge="1">
          <mxGeometry width="50" height="50" relative="1" as="geometry">
            <mxPoint x="420" y="-720" as="sourcePoint" />
            <mxPoint x="420" y="-830" as="targetPoint" />
          </mxGeometry>
        </mxCell>
        <mxCell id="Hhjpb6YSij6LQ99XiFMk-9" value="&lt;h3&gt;Event_Catagory&lt;/h3&gt;" style="rounded=0;whiteSpace=wrap;html=1;fillColor=#7EA6E0;strokeColor=#000066;strokeWidth=3;" parent="1" vertex="1">
          <mxGeometry x="345" y="-900" width="150" height="70" as="geometry" />
        </mxCell>
        <mxCell id="Hhjpb6YSij6LQ99XiFMk-11" value="" style="endArrow=classic;html=1;rounded=0;" parent="1" edge="1">
          <mxGeometry width="50" height="50" relative="1" as="geometry">
            <mxPoint x="430" y="-900" as="sourcePoint" />
            <mxPoint x="430" y="-1000" as="targetPoint" />
          </mxGeometry>
        </mxCell>
        <mxCell id="Hhjpb6YSij6LQ99XiFMk-12" value="&lt;u&gt;&lt;b&gt;Event_Catogory_ID&lt;/b&gt;&lt;/u&gt;" style="ellipse;whiteSpace=wrap;html=1;fillColor=#d5e8d4;strokeColor=#82b366;" parent="1" vertex="1">
          <mxGeometry x="355" y="-1080" width="145" height="80" as="geometry" />
        </mxCell>
        <mxCell id="Hhjpb6YSij6LQ99XiFMk-13" value="" style="endArrow=none;html=1;rounded=0;" parent="1" edge="1">
          <mxGeometry width="50" height="50" relative="1" as="geometry">
            <mxPoint x="-230" y="800" as="sourcePoint" />
            <mxPoint x="-220" y="610" as="targetPoint" />
          </mxGeometry>
        </mxCell>
        <mxCell id="Hhjpb6YSij6LQ99XiFMk-14" value="has" style="rhombus;whiteSpace=wrap;html=1;fillColor=#ffe6cc;strokeColor=#663300;strokeWidth=2;" parent="1" vertex="1">
          <mxGeometry x="-290" y="800" width="120" height="140" as="geometry" />
        </mxCell>
        <mxCell id="Hhjpb6YSij6LQ99XiFMk-16" value="(Book_Catagory)" style="rounded=0;whiteSpace=wrap;html=1;fillColor=#7EA6E0;strokeColor=#003366;strokeWidth=2;" parent="1" vertex="1">
          <mxGeometry x="-320" y="1050" width="210" height="70" as="geometry" />
        </mxCell>
        <mxCell id="Hhjpb6YSij6LQ99XiFMk-17" value="" style="endArrow=classic;html=1;rounded=0;" parent="1" edge="1">
          <mxGeometry width="50" height="50" relative="1" as="geometry">
            <mxPoint x="-230" y="940" as="sourcePoint" />
            <mxPoint x="-230" y="1050" as="targetPoint" />
          </mxGeometry>
        </mxCell>
        <mxCell id="Hhjpb6YSij6LQ99XiFMk-18" value="" style="endArrow=classic;html=1;rounded=0;exitX=0.438;exitY=1.057;exitDx=0;exitDy=0;exitPerimeter=0;" parent="1" source="Hhjpb6YSij6LQ99XiFMk-16" edge="1">
          <mxGeometry width="50" height="50" relative="1" as="geometry">
            <mxPoint x="-225.5" y="1130" as="sourcePoint" />
            <mxPoint x="-225.5" y="1230" as="targetPoint" />
          </mxGeometry>
        </mxCell>
        <mxCell id="Hhjpb6YSij6LQ99XiFMk-19" value="Book_Catagory_Id" style="ellipse;whiteSpace=wrap;html=1;fontStyle=4;fillColor=#d5e8d4;strokeColor=#82b366;" parent="1" vertex="1">
          <mxGeometry x="-307.5" y="1230" width="165" height="80" as="geometry" />
        </mxCell>
        <mxCell id="Hhjpb6YSij6LQ99XiFMk-20" value="" style="endArrow=classic;html=1;rounded=0;exitX=0.857;exitY=1;exitDx=0;exitDy=0;exitPerimeter=0;" parent="1" source="Hhjpb6YSij6LQ99XiFMk-16" edge="1">
          <mxGeometry width="50" height="50" relative="1" as="geometry">
            <mxPoint x="-130" y="1130" as="sourcePoint" />
            <mxPoint x="-30" y="1230" as="targetPoint" />
          </mxGeometry>
        </mxCell>
        <mxCell id="Hhjpb6YSij6LQ99XiFMk-21" value="Book_Catogory_Name" style="ellipse;whiteSpace=wrap;html=1;fillColor=#d5e8d4;strokeColor=#82b366;" parent="1" vertex="1">
          <mxGeometry x="-100" y="1230" width="180" height="80" as="geometry" />
        </mxCell>
        <mxCell id="Hhjpb6YSij6LQ99XiFMk-22" value="" style="endArrow=classic;html=1;rounded=0;" parent="1" edge="1">
          <mxGeometry width="50" height="50" relative="1" as="geometry">
            <mxPoint x="-320" y="1120" as="sourcePoint" />
            <mxPoint x="-440" y="1250" as="targetPoint" />
          </mxGeometry>
        </mxCell>
        <mxCell id="Hhjpb6YSij6LQ99XiFMk-24" value="Book_Description" style="ellipse;whiteSpace=wrap;html=1;fillColor=#d5e8d4;strokeColor=#82b366;" parent="1" vertex="1">
          <mxGeometry x="-530" y="1250" width="160" height="80" as="geometry" />
        </mxCell>
        <mxCell id="Hhjpb6YSij6LQ99XiFMk-25" value="" style="endArrow=classic;html=1;rounded=0;" parent="1" edge="1">
          <mxGeometry width="50" height="50" relative="1" as="geometry">
            <mxPoint x="490" y="-900" as="sourcePoint" />
            <mxPoint x="570" y="-1010" as="targetPoint" />
          </mxGeometry>
        </mxCell>
        <mxCell id="Hhjpb6YSij6LQ99XiFMk-26" value="Event_Description" style="ellipse;whiteSpace=wrap;html=1;fillColor=#d5e8d4;strokeColor=#82b366;" parent="1" vertex="1">
          <mxGeometry x="540" y="-1100" width="160" height="80" as="geometry" />
        </mxCell>
        <mxCell id="Hhjpb6YSij6LQ99XiFMk-27" value="" style="endArrow=classic;html=1;rounded=0;" parent="1" edge="1">
          <mxGeometry width="50" height="50" relative="1" as="geometry">
            <mxPoint x="345" y="-900" as="sourcePoint" />
            <mxPoint x="230" y="-1020" as="targetPoint" />
          </mxGeometry>
        </mxCell>
        <mxCell id="Hhjpb6YSij6LQ99XiFMk-28" value="Event_Catagory_Name" style="ellipse;whiteSpace=wrap;html=1;fillColor=#d5e8d4;strokeColor=#82b366;" parent="1" vertex="1">
          <mxGeometry x="150" y="-1100" width="140" height="80" as="geometry" />
        </mxCell>
        <mxCell id="Hhjpb6YSij6LQ99XiFMk-29" value="" style="endArrow=classic;html=1;rounded=0;" parent="1" edge="1">
          <mxGeometry width="50" height="50" relative="1" as="geometry">
            <mxPoint x="360" y="-350" as="sourcePoint" />
            <mxPoint x="120" y="-470" as="targetPoint" />
          </mxGeometry>
        </mxCell>
        <mxCell id="Hhjpb6YSij6LQ99XiFMk-30" value="(Event_Category_Id)" style="ellipse;whiteSpace=wrap;html=1;fontStyle=4;fillColor=#d5e8d4;strokeColor=#82b366;" parent="1" vertex="1">
          <mxGeometry x="-50" y="-560" width="200" height="100" as="geometry" />
        </mxCell>
        <mxCell id="Hhjpb6YSij6LQ99XiFMk-31" value="" style="endArrow=classic;html=1;rounded=0;entryX=0.65;entryY=1.05;entryDx=0;entryDy=0;entryPerimeter=0;" parent="1" target="DFoldNu-bzbXCoR8HNMC-74" edge="1">
          <mxGeometry width="50" height="50" relative="1" as="geometry">
            <mxPoint x="-270" y="170" as="sourcePoint" />
            <mxPoint x="-220" y="120" as="targetPoint" />
          </mxGeometry>
        </mxCell>
        <mxCell id="Hhjpb6YSij6LQ99XiFMk-32" value="" style="endArrow=classic;html=1;rounded=0;" parent="1" source="ka3ZlVEU3OrB7q1dygob-4" edge="1">
          <mxGeometry width="50" height="50" relative="1" as="geometry">
            <mxPoint x="-192.5" y="160" as="sourcePoint" />
            <mxPoint x="-120" y="50" as="targetPoint" />
          </mxGeometry>
        </mxCell>
        <mxCell id="Hhjpb6YSij6LQ99XiFMk-33" value="user_password" style="ellipse;whiteSpace=wrap;html=1;fillColor=#d5e8d4;strokeColor=#82b366;" parent="1" vertex="1">
          <mxGeometry x="-160" y="-30" width="120" height="80" as="geometry" />
        </mxCell>
        <mxCell id="Hhjpb6YSij6LQ99XiFMk-34" value="" style="endArrow=classic;html=1;rounded=0;" parent="1" edge="1">
          <mxGeometry width="50" height="50" relative="1" as="geometry">
            <mxPoint x="-280" y="250" as="sourcePoint" />
            <mxPoint x="-380" y="300" as="targetPoint" />
          </mxGeometry>
        </mxCell>
        <mxCell id="Hhjpb6YSij6LQ99XiFMk-35" value="noOfIssuedBooks" style="ellipse;whiteSpace=wrap;html=1;fillColor=#d5e8d4;strokeColor=#82b366;" parent="1" vertex="1">
          <mxGeometry x="-480" y="290" width="120" height="80" as="geometry" />
        </mxCell>
        <mxCell id="Hhjpb6YSij6LQ99XiFMk-36" value="" style="endArrow=classic;html=1;rounded=0;" parent="1" edge="1">
          <mxGeometry width="50" height="50" relative="1" as="geometry">
            <mxPoint x="580" y="220" as="sourcePoint" />
            <mxPoint x="790" y="400" as="targetPoint" />
          </mxGeometry>
        </mxCell>
        <mxCell id="Hhjpb6YSij6LQ99XiFMk-37" value="admin_Password" style="ellipse;whiteSpace=wrap;html=1;fillColor=#d5e8d4;strokeColor=#82b366;" parent="1" vertex="1">
          <mxGeometry x="790" y="390" width="120" height="80" as="geometry" />
        </mxCell>
        <mxCell id="Hhjpb6YSij6LQ99XiFMk-38" value="" style="endArrow=classic;html=1;rounded=0;exitX=0.25;exitY=1;exitDx=0;exitDy=0;exitPerimeter=0;" parent="1" source="ka3ZlVEU3OrB7q1dygob-6" edge="1">
          <mxGeometry width="50" height="50" relative="1" as="geometry">
            <mxPoint x="-830" y="430" as="sourcePoint" />
            <mxPoint x="-920" y="630" as="targetPoint" />
          </mxGeometry>
        </mxCell>
        <mxCell id="Hhjpb6YSij6LQ99XiFMk-39" value="&lt;h4&gt;&lt;u&gt;UTR_No&lt;/u&gt;&lt;/h4&gt;" style="ellipse;whiteSpace=wrap;html=1;fillColor=#d5e8d4;strokeColor=#82b366;" parent="1" vertex="1">
          <mxGeometry x="-1010" y="625" width="140" height="80" as="geometry" />
        </mxCell>
        <mxCell id="Hhjpb6YSij6LQ99XiFMk-40" value="" style="endArrow=classic;html=1;rounded=0;entryX=0.277;entryY=-0.054;entryDx=0;entryDy=0;entryPerimeter=0;" parent="1" target="ka3ZlVEU3OrB7q1dygob-4" edge="1">
          <mxGeometry width="50" height="50" relative="1" as="geometry">
            <mxPoint x="-270" y="-320" as="sourcePoint" />
            <mxPoint x="-260" y="160" as="targetPoint" />
          </mxGeometry>
        </mxCell>
        <mxCell id="Hhjpb6YSij6LQ99XiFMk-41" value="1" style="text;strokeColor=none;align=center;fillColor=none;html=1;verticalAlign=middle;whiteSpace=wrap;rounded=0;" parent="1" vertex="1">
          <mxGeometry x="376" y="-400" width="60" height="30" as="geometry" />
        </mxCell>
        <mxCell id="Hhjpb6YSij6LQ99XiFMk-42" value="N" style="text;strokeColor=none;align=center;fillColor=none;html=1;verticalAlign=middle;whiteSpace=wrap;rounded=0;" parent="1" vertex="1">
          <mxGeometry x="366" y="-830" width="60" height="30" as="geometry" />
        </mxCell>
        <mxCell id="Hhjpb6YSij6LQ99XiFMk-43" value="Text" style="text;strokeColor=none;align=center;fillColor=none;html=1;verticalAlign=middle;whiteSpace=wrap;rounded=0;" parent="1" vertex="1">
          <mxGeometry x="1030" y="-250" width="60" height="30" as="geometry" />
        </mxCell>
        <mxCell id="Hhjpb6YSij6LQ99XiFMk-44" value="N" style="text;strokeColor=none;align=center;fillColor=none;html=1;verticalAlign=middle;whiteSpace=wrap;rounded=0;" parent="1" vertex="1">
          <mxGeometry x="-290" y="1020" width="60" height="25" as="geometry" />
        </mxCell>
        <mxCell id="Hhjpb6YSij6LQ99XiFMk-45" value="1" style="text;strokeColor=none;align=center;fillColor=none;html=1;verticalAlign=middle;whiteSpace=wrap;rounded=0;" parent="1" vertex="1">
          <mxGeometry x="-280" y="615" width="60" height="30" as="geometry" />
        </mxCell>
        <mxCell id="Hhjpb6YSij6LQ99XiFMk-46" value="1" style="text;strokeColor=none;align=center;fillColor=none;html=1;verticalAlign=middle;whiteSpace=wrap;rounded=0;" parent="1" vertex="1">
          <mxGeometry x="-740" y="360" width="60" height="30" as="geometry" />
        </mxCell>
        <mxCell id="Hhjpb6YSij6LQ99XiFMk-47" value="Text" style="text;strokeColor=none;align=center;fillColor=none;html=1;verticalAlign=middle;whiteSpace=wrap;rounded=0;" parent="1" vertex="1">
          <mxGeometry x="1060" y="-400" width="60" height="30" as="geometry" />
        </mxCell>
        <mxCell id="Hhjpb6YSij6LQ99XiFMk-49" value="1" style="text;strokeColor=none;align=center;fillColor=none;html=1;verticalAlign=middle;whiteSpace=wrap;rounded=0;" parent="1" vertex="1">
          <mxGeometry x="-650" y="585" width="60" height="30" as="geometry" />
        </mxCell>
        <mxCell id="mbcpCJRTSErWFvAwxPlJ-2" value="&lt;h2&gt;&lt;b&gt;Review&lt;/b&gt;&lt;/h2&gt;" style="rounded=0;whiteSpace=wrap;html=1;fillColor=#7EA6E0;strokeColor=#000066;strokeWidth=3;" vertex="1" parent="1">
          <mxGeometry x="-1290" y="-230" width="190" height="100" as="geometry" />
        </mxCell>
        <mxCell id="mbcpCJRTSErWFvAwxPlJ-3" value="adds" style="rhombus;whiteSpace=wrap;html=1;fillColor=#ffe6cc;strokeColor=#331A00;strokeWidth=2;" vertex="1" parent="1">
          <mxGeometry x="-860" y="-80" width="120" height="100" as="geometry" />
        </mxCell>
        <mxCell id="mbcpCJRTSErWFvAwxPlJ-5" value="" style="endArrow=none;html=1;rounded=0;entryX=0.015;entryY=0.138;entryDx=0;entryDy=0;entryPerimeter=0;" edge="1" parent="1" target="ka3ZlVEU3OrB7q1dygob-4">
          <mxGeometry width="50" height="50" relative="1" as="geometry">
            <mxPoint x="-740" y="-30" as="sourcePoint" />
            <mxPoint x="-290" y="170" as="targetPoint" />
            <Array as="points">
              <mxPoint x="-680" y="-30" />
            </Array>
          </mxGeometry>
        </mxCell>
        <mxCell id="mbcpCJRTSErWFvAwxPlJ-6" value="" style="endArrow=classic;html=1;rounded=0;entryX=1;entryY=1;entryDx=0;entryDy=0;" edge="1" parent="1" target="mbcpCJRTSErWFvAwxPlJ-2">
          <mxGeometry width="50" height="50" relative="1" as="geometry">
            <mxPoint x="-860" y="-30" as="sourcePoint" />
            <mxPoint x="-810" y="-80" as="targetPoint" />
            <Array as="points">
              <mxPoint x="-920" y="-30" />
            </Array>
          </mxGeometry>
        </mxCell>
        <mxCell id="mbcpCJRTSErWFvAwxPlJ-7" value="1" style="text;strokeColor=none;align=center;fillColor=none;html=1;verticalAlign=middle;whiteSpace=wrap;rounded=0;" vertex="1" parent="1">
          <mxGeometry x="-770" y="-10" width="60" height="30" as="geometry" />
        </mxCell>
        <mxCell id="mbcpCJRTSErWFvAwxPlJ-8" value="1" style="text;strokeColor=none;align=center;fillColor=none;html=1;verticalAlign=middle;whiteSpace=wrap;rounded=0;" vertex="1" parent="1">
          <mxGeometry x="-1120" y="-180" width="60" height="30" as="geometry" />
        </mxCell>
        <mxCell id="mbcpCJRTSErWFvAwxPlJ-11" value="" style="endArrow=classic;html=1;rounded=0;" edge="1" parent="1">
          <mxGeometry width="50" height="50" relative="1" as="geometry">
            <mxPoint x="-1290" y="-130" as="sourcePoint" />
            <mxPoint x="-1360" y="-10" as="targetPoint" />
          </mxGeometry>
        </mxCell>
        <mxCell id="mbcpCJRTSErWFvAwxPlJ-12" value="&lt;h3&gt;&lt;u&gt;&lt;b&gt;Review_ID&lt;/b&gt;&lt;/u&gt;&lt;/h3&gt;" style="ellipse;whiteSpace=wrap;html=1;fillColor=#d5e8d4;strokeColor=#82b366;" vertex="1" parent="1">
          <mxGeometry x="-1480" y="-10" width="180" height="80" as="geometry" />
        </mxCell>
        <mxCell id="mbcpCJRTSErWFvAwxPlJ-13" value="" style="endArrow=classic;html=1;rounded=0;exitX=0;exitY=0.5;exitDx=0;exitDy=0;" edge="1" parent="1" source="mbcpCJRTSErWFvAwxPlJ-2">
          <mxGeometry width="50" height="50" relative="1" as="geometry">
            <mxPoint x="-1300" y="-181" as="sourcePoint" />
            <mxPoint x="-1530" y="-181" as="targetPoint" />
          </mxGeometry>
        </mxCell>
        <mxCell id="mbcpCJRTSErWFvAwxPlJ-14" value="(ISBN)" style="ellipse;whiteSpace=wrap;html=1;fillColor=#d5e8d4;strokeColor=#82b366;" vertex="1" parent="1">
          <mxGeometry x="-1730" y="-220" width="190" height="80" as="geometry" />
        </mxCell>
        <mxCell id="mbcpCJRTSErWFvAwxPlJ-15" value="" style="endArrow=classic;html=1;rounded=0;" edge="1" parent="1">
          <mxGeometry width="50" height="50" relative="1" as="geometry">
            <mxPoint x="-1290" y="-230" as="sourcePoint" />
            <mxPoint x="-1500" y="-320" as="targetPoint" />
          </mxGeometry>
        </mxCell>
        <mxCell id="mbcpCJRTSErWFvAwxPlJ-16" value="(User_ID)" style="ellipse;whiteSpace=wrap;html=1;fillColor=#d5e8d4;strokeColor=#82b366;" vertex="1" parent="1">
          <mxGeometry x="-1690" y="-370" width="190" height="80" as="geometry" />
        </mxCell>
        <mxCell id="mbcpCJRTSErWFvAwxPlJ-17" value="" style="endArrow=classic;html=1;rounded=0;" edge="1" parent="1">
          <mxGeometry width="50" height="50" relative="1" as="geometry">
            <mxPoint x="-1240" y="-230" as="sourcePoint" />
            <mxPoint x="-1250" y="-410" as="targetPoint" />
          </mxGeometry>
        </mxCell>
        <mxCell id="mbcpCJRTSErWFvAwxPlJ-18" value="Ratings" style="ellipse;whiteSpace=wrap;html=1;fillColor=#d5e8d4;strokeColor=#82b366;" vertex="1" parent="1">
          <mxGeometry x="-1350" y="-490" width="200" height="80" as="geometry" />
        </mxCell>
        <mxCell id="mbcpCJRTSErWFvAwxPlJ-20" value="1" style="text;strokeColor=none;align=center;fillColor=none;html=1;verticalAlign=middle;whiteSpace=wrap;rounded=0;" vertex="1" parent="1">
          <mxGeometry x="495" y="230" width="60" height="30" as="geometry" />
        </mxCell>
        <mxCell id="mbcpCJRTSErWFvAwxPlJ-21" value="1" style="text;strokeColor=none;align=center;fillColor=none;html=1;verticalAlign=middle;whiteSpace=wrap;rounded=0;" vertex="1" parent="1">
          <mxGeometry x="-130" y="380" width="60" height="30" as="geometry" />
        </mxCell>
      </root>
    </mxGraphModel>
  </diagram>
</mxfile>
